<svg width="179" height="70" viewBox="0 0 179 70" fill="none" xmlns="http://www.w3.org/2000/svg">
<g clip-path="url(#clip0_116_454)">
<path d="M36.5909 25.6219C36.3798 24.8277 35.9638 24.1028 35.3846 23.5198C34.8053 22.9368 34.0831 22.5162 33.2902 22.3C30.3713 21.5151 18.7043 21.5151 18.7043 21.5151C18.7043 21.5151 7.03723 21.5151 4.11836 22.3C3.32545 22.5162 2.60323 22.9368 2.02397 23.5198C1.44471 24.1028 1.02872 24.8277 0.817648 25.6219C0.0370179 28.5535 0.0370178 34.6671 0.0370178 34.6671C0.0370178 34.6671 0.0370179 40.7806 0.817648 43.7122C1.02872 44.5065 1.44471 45.2314 2.02397 45.8143C2.60323 46.3973 3.32545 46.8179 4.11836 47.0341C7.03723 47.819 18.7043 47.819 18.7043 47.819C18.7043 47.819 30.3713 47.819 33.2902 47.0341C34.0831 46.8179 34.8053 46.3973 35.3846 45.8143C35.9638 45.2314 36.3798 44.5065 36.5909 43.7122C37.3715 40.7806 37.3715 34.6671 37.3715 34.6671C37.3715 34.6671 37.3715 28.5535 36.5909 25.6219Z" fill="#5CA369"/>
<path d="M14.886 40.2185V29.1157L24.6439 34.6671L14.886 40.2185Z" fill="#FEFEFE"/>
</g>
<path d="M61.193 28.454V29.786H57.773V41H56.135V29.786H52.697V28.454H61.193ZM62.5972 36.032C62.5972 35.024 62.8012 34.142 63.2092 33.386C63.6172 32.618 64.1752 32.024 64.8832 31.604C65.6032 31.184 66.4012 30.974 67.2772 30.974C68.1412 30.974 68.8912 31.16 69.5272 31.532C70.1632 31.904 70.6372 32.372 70.9492 32.936V31.136H72.6052V41H70.9492V39.164C70.6252 39.74 70.1392 40.22 69.4912 40.604C68.8552 40.976 68.1112 41.162 67.2592 41.162C66.3832 41.162 65.5912 40.946 64.8832 40.514C64.1752 40.082 63.6172 39.476 63.2092 38.696C62.8012 37.916 62.5972 37.028 62.5972 36.032ZM70.9492 36.05C70.9492 35.306 70.7992 34.658 70.4992 34.106C70.1992 33.554 69.7912 33.134 69.2752 32.846C68.7712 32.546 68.2132 32.396 67.6012 32.396C66.9892 32.396 66.4312 32.54 65.9272 32.828C65.4232 33.116 65.0212 33.536 64.7212 34.088C64.4212 34.64 64.2712 35.288 64.2712 36.032C64.2712 36.788 64.4212 37.448 64.7212 38.012C65.0212 38.564 65.4232 38.99 65.9272 39.29C66.4312 39.578 66.9892 39.722 67.6012 39.722C68.2132 39.722 68.7712 39.578 69.2752 39.29C69.7912 38.99 70.1992 38.564 70.4992 38.012C70.7992 37.448 70.9492 36.794 70.9492 36.05ZM80.8813 41L77.0113 36.644V41H75.3733V27.68H77.0113V35.51L80.8093 31.136H83.0953L78.4513 36.05L83.1133 41H80.8813ZM93.637 35.69C93.637 36.002 93.619 36.332 93.583 36.68H85.699C85.759 37.652 86.089 38.414 86.689 38.966C87.301 39.506 88.039 39.776 88.903 39.776C89.611 39.776 90.199 39.614 90.667 39.29C91.147 38.954 91.483 38.51 91.675 37.958H93.439C93.175 38.906 92.647 39.68 91.855 40.28C91.063 40.868 90.079 41.162 88.903 41.162C87.967 41.162 87.127 40.952 86.383 40.532C85.651 40.112 85.075 39.518 84.655 38.75C84.235 37.97 84.025 37.07 84.025 36.05C84.025 35.03 84.229 34.136 84.637 33.368C85.045 32.6 85.615 32.012 86.347 31.604C87.091 31.184 87.943 30.974 88.903 30.974C89.839 30.974 90.667 31.178 91.387 31.586C92.107 31.994 92.659 32.558 93.043 33.278C93.439 33.986 93.637 34.79 93.637 35.69ZM91.945 35.348C91.945 34.724 91.807 34.19 91.531 33.746C91.255 33.29 90.877 32.948 90.397 32.72C89.929 32.48 89.407 32.36 88.831 32.36C88.003 32.36 87.295 32.624 86.707 33.152C86.131 33.68 85.801 34.412 85.717 35.348H91.945ZM99.9859 36.032C99.9859 35.024 100.19 34.142 100.598 33.386C101.006 32.618 101.564 32.024 102.272 31.604C102.992 31.184 103.79 30.974 104.666 30.974C105.53 30.974 106.28 31.16 106.916 31.532C107.552 31.904 108.026 32.372 108.338 32.936V31.136H109.994V41H108.338V39.164C108.014 39.74 107.528 40.22 106.88 40.604C106.244 40.976 105.5 41.162 104.648 41.162C103.772 41.162 102.98 40.946 102.272 40.514C101.564 40.082 101.006 39.476 100.598 38.696C100.19 37.916 99.9859 37.028 99.9859 36.032ZM108.338 36.05C108.338 35.306 108.188 34.658 107.888 34.106C107.588 33.554 107.18 33.134 106.664 32.846C106.16 32.546 105.602 32.396 104.99 32.396C104.378 32.396 103.82 32.54 103.316 32.828C102.812 33.116 102.41 33.536 102.11 34.088C101.81 34.64 101.66 35.288 101.66 36.032C101.66 36.788 101.81 37.448 102.11 38.012C102.41 38.564 102.812 38.99 103.316 39.29C103.82 39.578 104.378 39.722 104.99 39.722C105.602 39.722 106.16 39.578 106.664 39.29C107.18 38.99 107.588 38.564 107.888 38.012C108.188 37.448 108.338 36.794 108.338 36.05ZM119.559 32.486V38.3C119.559 38.78 119.661 39.122 119.865 39.326C120.069 39.518 120.423 39.614 120.927 39.614H122.133V41H120.657C119.745 41 119.061 40.79 118.605 40.37C118.149 39.95 117.921 39.26 117.921 38.3V32.486H116.643V31.136H117.921V28.652H119.559V31.136H122.133V32.486H119.559ZM128.419 41.162C127.495 41.162 126.655 40.952 125.899 40.532C125.155 40.112 124.567 39.518 124.135 38.75C123.715 37.97 123.505 37.07 123.505 36.05C123.505 35.042 123.721 34.154 124.153 33.386C124.597 32.606 125.197 32.012 125.953 31.604C126.709 31.184 127.555 30.974 128.491 30.974C129.427 30.974 130.273 31.184 131.029 31.604C131.785 32.012 132.379 32.6 132.811 33.368C133.255 34.136 133.477 35.03 133.477 36.05C133.477 37.07 133.249 37.97 132.793 38.75C132.349 39.518 131.743 40.112 130.975 40.532C130.207 40.952 129.355 41.162 128.419 41.162ZM128.419 39.722C129.007 39.722 129.559 39.584 130.075 39.308C130.591 39.032 131.005 38.618 131.317 38.066C131.641 37.514 131.803 36.842 131.803 36.05C131.803 35.258 131.647 34.586 131.335 34.034C131.023 33.482 130.615 33.074 130.111 32.81C129.607 32.534 129.061 32.396 128.473 32.396C127.873 32.396 127.321 32.534 126.817 32.81C126.325 33.074 125.929 33.482 125.629 34.034C125.329 34.586 125.179 35.258 125.179 36.05C125.179 36.854 125.323 37.532 125.611 38.084C125.911 38.636 126.307 39.05 126.799 39.326C127.291 39.59 127.831 39.722 128.419 39.722ZM144.379 31.136V41H142.741V39.542C142.429 40.046 141.991 40.442 141.427 40.73C140.875 41.006 140.263 41.144 139.591 41.144C138.823 41.144 138.133 40.988 137.521 40.676C136.909 40.352 136.423 39.872 136.063 39.236C135.715 38.6 135.541 37.826 135.541 36.914V31.136H137.161V36.698C137.161 37.67 137.407 38.42 137.899 38.948C138.391 39.464 139.063 39.722 139.915 39.722C140.791 39.722 141.481 39.452 141.985 38.912C142.489 38.372 142.741 37.586 142.741 36.554V31.136H144.379ZM148.783 32.738C149.071 32.174 149.479 31.736 150.007 31.424C150.547 31.112 151.201 30.956 151.969 30.956V32.648H151.537C149.701 32.648 148.783 33.644 148.783 35.636V41H147.145V31.136H148.783V32.738Z" fill="#212528"/>
<path d="M136.555 66.4113L137.187 62.456L137.836 62.5597L137.559 64.2898L139.42 64.5873L139.697 62.8572L140.345 62.9609L139.713 66.9163L139.064 66.8125L139.335 65.1166L137.474 64.8191L137.203 66.515L136.555 66.4113Z" fill="#212528"/>
<path d="M133.628 61.3367C133.978 61.4643 134.272 61.6632 134.509 61.9336C134.74 62.2062 134.89 62.5202 134.957 62.8758C135.018 63.2336 134.982 63.5967 134.848 63.9649C134.714 64.3331 134.509 64.6326 134.233 64.8632C133.953 65.0924 133.637 65.2351 133.285 65.291C132.929 65.3492 132.576 65.3145 132.225 65.1869C131.872 65.058 131.579 64.8573 131.347 64.5847C131.11 64.3144 130.96 64.0021 130.897 63.6479C130.834 63.2936 130.869 62.9324 131.003 62.5642C131.137 62.1959 131.343 61.8947 131.621 61.6605C131.897 61.4299 132.213 61.2855 132.57 61.2273C132.922 61.1713 133.274 61.2078 133.628 61.3367ZM133.433 61.8728C133.184 61.7821 132.941 61.7571 132.705 61.798C132.468 61.8425 132.258 61.9497 132.073 62.1197C131.884 62.2919 131.738 62.517 131.637 62.795C131.536 63.073 131.503 63.337 131.538 63.5872C131.57 63.836 131.664 64.0519 131.818 64.2349C131.972 64.4178 132.174 64.5547 132.423 64.6454C132.672 64.7362 132.914 64.7611 133.15 64.7202C133.386 64.6793 133.598 64.5746 133.786 64.4059C133.97 64.236 134.113 64.0121 134.215 63.7341C134.316 63.4561 134.351 63.1909 134.32 62.9384C134.285 62.6883 134.19 62.4699 134.038 62.2834C133.883 62.1004 133.682 61.9636 133.433 61.8728Z" fill="#212528"/>
<path d="M123.598 60.5261L126.757 57.7922L127.384 58.193L126.458 61.2L128.845 59.1281L129.469 59.5208L128.263 63.5115L127.676 63.1356L128.735 59.9407L126.22 62.2037L125.598 61.806L126.643 58.6225L124.191 60.9051L123.598 60.5261Z" fill="#212528"/>
<path d="M119.092 13.9386L122.231 16.4275L121.823 16.9423L120.45 15.8536L119.279 17.3303L120.652 18.4189L120.243 18.9337L117.105 16.4448L117.513 15.93L118.859 16.9972L120.03 15.5206L118.684 14.4534L119.092 13.9386Z" fill="#212528"/>
<path d="M124.95 13.8733C124.668 14.1161 124.35 14.2745 123.999 14.3485C123.647 14.4172 123.3 14.3935 122.958 14.2775C122.615 14.1561 122.317 13.9467 122.061 13.6494C121.806 13.3521 121.646 13.0265 121.58 12.6727C121.517 12.3165 121.547 11.9714 121.671 11.6374C121.795 11.2981 121.998 11.007 122.281 10.7643C122.567 10.519 122.885 10.362 123.236 10.2934C123.588 10.2193 123.934 10.2415 124.273 10.36C124.613 10.4785 124.911 10.6864 125.166 10.9838C125.421 11.2811 125.583 11.6081 125.651 11.9648C125.717 12.3186 125.688 12.6651 125.564 13.0045C125.441 13.3384 125.236 13.628 124.95 13.8733ZM124.579 13.4404C124.78 13.2677 124.92 13.0686 125 12.843C125.077 12.6146 125.087 12.3783 125.029 12.1341C124.972 11.8845 124.847 11.6475 124.654 11.423C124.462 11.1986 124.248 11.0406 124.012 10.9491C123.779 10.8551 123.546 10.8305 123.311 10.8753C123.076 10.9201 122.857 11.0288 122.656 11.2015C122.455 11.3742 122.315 11.5733 122.235 11.7989C122.155 12.0244 122.143 12.2605 122.197 12.5072C122.255 12.7513 122.38 12.9857 122.573 13.2101C122.766 13.4346 122.98 13.5953 123.215 13.6922C123.45 13.7837 123.687 13.8085 123.924 13.7666C124.159 13.7218 124.377 13.6131 124.579 13.4404Z" fill="#212528"/>
<path d="M130.57 5.52624L131.406 9.61959L130.75 9.9692L128.582 7.68946L129.219 10.785L128.57 11.137L125.682 8.13076L126.298 7.80282L128.564 10.2914L127.823 6.98976L128.475 6.64285L130.738 9.11351L129.95 5.85689L130.57 5.52624Z" fill="#212528"/>
<path d="M141.15 3.0137L140.572 7.15133L139.837 7.26196L138.553 4.38939L138.121 7.52011L137.392 7.63558L135.673 3.83788L136.362 3.73411L137.669 6.83637L138.072 3.47682L138.802 3.36704L140.111 6.45135L140.454 3.11833L141.15 3.0137Z" fill="#212528"/>
<path d="M144.14 3.61074L144.087 4.78525L145.468 4.84835L145.444 5.38379L144.062 5.32069L144.006 6.54701L145.561 6.618L145.536 7.15344L143.325 7.05247L143.508 3.04533L145.719 3.1463L145.695 3.68174L144.14 3.61074Z" fill="#212528"/>
<path d="M156.46 5.82617L154.005 9.20597L153.304 8.95788L153.522 5.81931L151.668 8.37901L150.971 8.13828L151.239 3.97801L151.897 4.21071L151.591 7.56276L153.527 4.78766L154.222 5.03383L153.927 8.37149L155.798 5.59154L156.46 5.82617Z" fill="#212528"/>
<path d="M158.007 11.3738C157.691 11.1758 157.446 10.9199 157.271 10.606C157.101 10.291 157.021 9.95259 157.03 9.59094C157.044 9.22807 157.156 8.88063 157.364 8.5486C157.572 8.21658 157.835 7.9667 158.154 7.79897C158.475 7.63329 158.814 7.55987 159.169 7.57874C159.53 7.59638 159.868 7.70421 160.184 7.90221C160.503 8.10226 160.748 8.35982 160.917 8.67491C161.092 8.98877 161.174 9.32551 161.161 9.68512C161.149 10.0447 161.039 10.3905 160.831 10.7226C160.622 11.0546 160.358 11.3061 160.038 11.4771C159.719 11.6448 159.38 11.7199 159.019 11.7022C158.663 11.6833 158.326 11.5739 158.007 11.3738ZM158.31 10.8905C158.535 11.0313 158.767 11.1064 159.006 11.1157C159.247 11.1218 159.476 11.061 159.692 10.9335C159.913 10.8047 160.102 10.615 160.259 10.3643C160.417 10.1137 160.504 9.86232 160.521 9.61024C160.542 9.3602 160.496 9.12961 160.384 8.91847C160.271 8.70733 160.103 8.53134 159.878 8.39049C159.653 8.24964 159.422 8.17456 159.183 8.16524C158.943 8.15592 158.714 8.21402 158.495 8.33954C158.279 8.4671 158.092 8.6562 157.935 8.90685C157.778 9.1575 157.688 9.40947 157.665 9.66276C157.648 9.91484 157.694 10.1481 157.805 10.3625C157.917 10.5736 158.086 10.7496 158.31 10.8905Z" fill="#212528"/>
<path d="M162.629 14.9263L163.034 13.1224L162.664 12.7833L161.581 13.9637L161.097 13.5194L163.806 10.5686L164.824 11.504C165.051 11.7118 165.206 11.9268 165.289 12.149C165.374 12.3737 165.394 12.5877 165.349 12.7909C165.306 12.9967 165.209 13.1817 165.058 13.3458C164.882 13.5383 164.664 13.6618 164.405 13.7164C164.152 13.7708 163.883 13.7197 163.599 13.5633L163.207 15.4564L162.629 14.9263ZM163.019 12.397L163.554 12.8881C163.735 13.0544 163.913 13.1338 164.086 13.1264C164.263 13.1215 164.421 13.0427 164.562 12.8898C164.702 12.737 164.766 12.5765 164.753 12.4085C164.743 12.2376 164.646 12.0677 164.462 11.8988L163.927 11.4077L163.019 12.397Z" fill="#212528"/>
<path d="M165.767 18.517L166.227 16.1923L164.814 17.2943L164.41 16.7761L167.569 14.3134L167.973 14.8315L166.532 15.9548L168.93 16.0588L169.436 16.7087L166.784 16.5692L166.295 19.1942L165.767 18.517Z" fill="#212528"/>
<path d="M173.392 24.4212L169.685 25.938L169.436 25.3299L171.058 24.6664L170.344 22.9222L168.723 23.5856L168.474 22.9775L172.181 21.4607L172.43 22.0688L170.84 22.7192L171.554 24.4635L173.144 23.8131L173.392 24.4212Z" fill="#212528"/>
<path d="M170.58 29.5597C170.506 29.1943 170.524 28.8401 170.631 28.4972C170.744 28.1574 170.934 27.8665 171.203 27.6246C171.477 27.3857 171.806 27.2278 172.19 27.1509C172.574 27.074 172.937 27.0935 173.277 27.2095C173.619 27.3293 173.905 27.5248 174.135 27.7961C174.37 28.0703 174.525 28.3902 174.598 28.7556C174.672 29.1248 174.652 29.4794 174.54 29.8192C174.432 30.1621 174.244 30.4526 173.974 30.6908C173.704 30.9289 173.377 31.0864 172.993 31.1633C172.609 31.2402 172.244 31.2211 171.9 31.1058C171.559 30.9898 171.271 30.7947 171.036 30.5204C170.806 30.2492 170.653 29.9289 170.58 29.5597ZM171.139 29.4478C171.191 29.7077 171.296 29.9277 171.453 30.1078C171.615 30.2871 171.816 30.4114 172.057 30.4807C172.303 30.553 172.571 30.5602 172.861 30.5021C173.151 30.4441 173.393 30.3348 173.588 30.1743C173.784 30.0175 173.92 29.8257 173.996 29.5989C174.073 29.3721 174.085 29.1287 174.033 28.8687C173.981 28.6088 173.876 28.3887 173.718 28.2087C173.561 28.0286 173.361 27.902 173.119 27.829C172.878 27.7597 172.612 27.754 172.322 27.8121C172.032 27.8701 171.787 27.9779 171.588 28.1354C171.392 28.296 171.255 28.49 171.175 28.7176C171.099 28.9444 171.087 29.1878 171.139 29.4478Z" fill="#212528"/>
<path d="M175.103 38.5479L171.125 37.2713L171.142 36.528L174.192 35.7546L171.181 34.7937L171.192 34.056L175.227 33.0107L175.212 33.7079L171.932 34.4646L175.173 35.4365L175.157 36.174L171.894 36.9369L175.119 37.845L175.103 38.5479Z" fill="#212528"/>
<path d="M172.112 49.0024L168.788 46.4716L169.051 45.7765L172.184 46.065L169.667 44.1545L169.923 43.4627L174.076 43.8239L173.829 44.476L170.484 44.0949L173.216 46.0926L172.954 46.7823L169.624 46.4127L172.361 48.345L172.112 49.0024Z" fill="#212528"/>
<path d="M170.126 51.317L169.129 50.6949L168.397 51.8686L167.942 51.585L168.674 50.4113L167.632 49.7617L166.809 51.0821L166.354 50.7985L167.525 48.9206L170.929 51.0431L169.758 52.9211L169.303 52.6374L170.126 51.317Z" fill="#212528"/>
<path d="M162.159 60.9718L160.416 57.1752L160.975 56.6857L163.604 58.4136L162.281 55.5436L162.832 55.0536L166.328 57.3255L165.803 57.7846L163.031 55.8756L164.502 58.9229L163.946 59.4086L161.181 57.5164L162.688 60.5089L162.159 60.9718Z" fill="#212528"/>
<path d="M156.565 59.602C156.892 59.4237 157.235 59.3352 157.595 59.3363C157.953 59.3427 158.287 59.4384 158.598 59.6235C158.907 59.8138 159.155 60.081 159.343 60.4252C159.53 60.7694 159.619 61.1213 159.609 61.481C159.596 61.8425 159.495 62.1736 159.304 62.4743C159.112 62.7802 158.852 63.0223 158.525 63.2006C158.194 63.3807 157.85 63.4676 157.492 63.4612C157.133 63.4601 156.799 63.3661 156.492 63.1791C156.184 62.9922 155.937 62.7266 155.749 62.3825C155.562 62.0383 155.472 61.6847 155.48 61.3216C155.49 60.9619 155.591 60.6291 155.783 60.3232C155.973 60.0225 156.234 59.7821 156.565 59.602ZM156.838 60.1031C156.605 60.2299 156.426 60.3952 156.301 60.5991C156.177 60.8063 156.118 61.0353 156.123 61.2861C156.127 61.5422 156.2 61.8001 156.341 62.0599C156.483 62.3198 156.659 62.519 156.871 62.6578C157.078 62.7983 157.302 62.8713 157.541 62.8767C157.78 62.882 158.016 62.8213 158.249 62.6945C158.482 62.5677 158.661 62.4023 158.786 62.1985C158.911 61.9947 158.973 61.7664 158.971 61.5137C158.966 61.2629 158.892 61.0076 158.751 60.7477C158.609 60.4879 158.434 60.286 158.224 60.1421C158.013 60.0034 157.787 59.9296 157.546 59.9209C157.306 59.9155 157.07 59.9763 156.838 60.1031Z" fill="#212528"/>
<path d="M151.203 61.8915L152.578 63.1276L153.054 62.9717L152.556 61.4489L153.18 61.2446L154.426 65.0516L153.111 65.4817C152.819 65.5773 152.556 65.6068 152.322 65.5702C152.084 65.5349 151.887 65.4475 151.733 65.3082C151.574 65.17 151.46 64.995 151.391 64.7832C151.31 64.5349 151.309 64.2846 151.388 64.0323C151.465 63.7848 151.641 63.5756 151.916 63.4046L150.458 62.1353L151.203 61.8915ZM153.217 63.4702L152.527 63.696C152.293 63.7724 152.137 63.8882 152.059 64.0433C151.976 64.1996 151.967 64.3763 152.032 64.5735C152.096 64.7707 152.205 64.905 152.358 64.9763C152.512 65.0513 152.707 65.0499 152.945 64.9723L153.635 64.7465L153.217 63.4702Z" fill="#212528"/>
<path d="M146.536 62.8684L148.337 64.4086L148.069 62.6364L148.718 62.5381L149.318 66.4985L148.668 66.5968L148.395 64.7904L147.13 66.8297L146.315 66.9531L147.736 64.7095L145.687 62.997L146.536 62.8684Z" fill="#212528"/>
<defs>
<clipPath id="clip0_116_454">
<rect width="37.3345" height="37.3345" fill="white" transform="translate(0 16)"/>
</clipPath>
</defs>
</svg>
